
<svg width="1440" height="900" viewBox="0 0 1440 900" fill="none" xmlns="http://www.w3.org/2000/svg">
  <g opacity="0.15">
    <path d="M1248.7 0L1440 0L1440 660C1381.7 669 1323.9 636.6 1302.6 584.1L1248.7 0Z" fill="#38bdf8"/>
    <path d="M1177.2 0L1248.7 0L1302.6 584.1C1283.5 537.5 1233.3 428.7 1188.8 404.9C1144.3 381.1 1135.6 300.6 1140.9 264.4L1177.2 0Z" fill="#38bdf8"/>
    <path d="M975.7 0L1177.2 0L1140.9 264.4C1124.9 302.1 1094.2 387.3 1102.3 444.6C1112.4 516.2 1074.3 569.1 1053.8 586.1L975.7 0Z" fill="#38bdf8"/>
    <path d="M870.9 0L975.7 0L1053.8 586.1C1037.4 600.1 994 637.6 953.4 663.1C902.9 694.9 854.1 773 836 807.4L870.9 0Z" fill="#38bdf8"/>
    <path d="M721.4 0L870.9 0L836 807.4C824.7 829.7 795.9 880.5 774.9 900L721.4 0Z" fill="#38bdf8"/>
    <path d="M613.1 0L721.4 0L774.9 900H711.4C697.3 858 664.3 764.1 647.7 723.5C631.1 682.9 613.1 481.1 608.4 385.7L613.1 0Z" fill="#38bdf8"/>
    <path d="M462.1 0L613.1 0L608.4 385.7C607.1 417.7 604.6 489.8 604.6 518.4C604.6 554.3 564.2 687 544.3 748.8L462.1 0Z" fill="#38bdf8"/>
    <path d="M332.4 0L462.1 0L544.3 748.8C527.6 799.3 494.9 857.8 465.9 852.5C430 846 376.7 762.5 354.7 722.9L332.4 0Z" fill="#38bdf8"/>
    <path d="M235.7 0L332.4 0L354.7 722.9C341.4 698.8 308.7 646 290.8 632.2C268.5 614.9 232.3 530.1 217.1 489.5L235.7 0Z" fill="#38bdf8"/>
    <path d="M116 0L235.7 0L217.1 489.5C201.9 448.9 171.3 358.5 171.3 335.2C171.3 311.9 146.2 198.5 134.3 147.3L116 0Z" fill="#38bdf8"/>
    <path d="M0 0L116 0L134.3 147.3C122.4 96.1 96.8 37.7 72 28.9C52.3 22 21.5 12.1 0 8V0Z" fill="#38bdf8"/>
  </g>
</svg>
